<svg id="Layer_1" data-name="Layer 1" xmlns="http://www.w3.org/2000/svg" viewBox="0 0 72.46 72.46"><defs><style>.cls-1{fill:#fff;stroke:#3ca5b2;stroke-miterlimit:10;stroke-width:2.5px;}.cls-2{fill:#3ca5b2;}</style></defs><title>helloGOV_assets_svg</title><circle class="cls-1" cx="36.23" cy="36.23" r="34.98"/><path class="cls-2" d="M18.83,56.55a3.37,3.37,0,0,0,3.4-3.4,3.41,3.41,0,0,0-1.1-2.5l5.5-11a2.2,2.2,0,0,0,.8.1,3.54,3.54,0,0,0,3.4-2.7h6.5a3.44,3.44,0,0,0,6.8-.7,3.45,3.45,0,0,0-.5-1.8L52,26a4.19,4.19,0,0,0,1.6.4,3.45,3.45,0,1,0-3.3-3.5,4.19,4.19,0,0,0,.4,1.6l-8.5,8.6a3.19,3.19,0,0,0-1.4-.3,3.66,3.66,0,0,0-3.2,2.1h-6.9a3.43,3.43,0,0,0-3.2-2.1,3.37,3.37,0,0,0-3.4,3.4,3.17,3.17,0,0,0,.9,2.3l-5.7,11.2a4.33,4.33,0,0,1-.5-.1,3.45,3.45,0,0,0,0,6.9Z"/></svg>
